<svg xmlns="http://www.w3.org/2000/svg" xmlns:xlink="http://www.w3.org/1999/xlink" height="417pt" version="1.1" viewBox="0 0 488 417" width="100%">
 <defs>
  <style type="text/css"></style>
 </defs>
 <g id="figure_1">
  <g id="patch_1">
   <path d="M 0 417.105562  L 488.63025 417.105562  L 488.63025 0  L 0 0  z " style="fill:none;opacity:0;"/>
  </g>
  <g id="axes_1">
   <g id="patch_2">
    <path d="M 57.88625 319.239  L 415.00625 319.239  L 415.00625 58.311  L 57.88625 58.311  z " style="fill:none;opacity:0;"/>
   </g>
   <g id="patch_3">
    <path clip-path="url(#p185c1f9a22)" d="M 74.118977 319.239  L 81.026521 319.239  L 81.026521 318.029306  L 74.118977 318.029306  z " style="fill:#ff7f0e;opacity:0.5;"/>
   </g>
   <g id="patch_4">
    <path clip-path="url(#p185c1f9a22)" d="M 87.934064 319.239  L 94.841608 319.239  L 94.841608 292.438764  L 87.934064 292.438764  z " style="fill:#ff7f0e;opacity:0.5;"/>
   </g>
   <g id="patch_5">
    <path clip-path="url(#p185c1f9a22)" d="M 101.749151 319.239  L 108.656695 319.239  L 108.656695 314.825925  L 101.749151 314.825925  z " style="fill:#ff7f0e;opacity:0.5;"/>
   </g>
   <g id="patch_6">
    <path clip-path="url(#p185c1f9a22)" d="M 115.564238 319.239  L 122.471782 319.239  L 122.471782 312.245842  L 115.564238 312.245842  z " style="fill:#2ca02c;opacity:0.5;"/>
   </g>
   <g id="patch_7">
    <path clip-path="url(#p185c1f9a22)" d="M 129.379325 319.239  L 136.286869 319.239  L 136.286869 306.839026  L 129.379325 306.839026  z " style="fill:#2ca02c;opacity:0.5;"/>
   </g>
   <g id="patch_8">
    <path clip-path="url(#p185c1f9a22)" d="M 143.194412 319.239  L 150.101956 319.239  L 150.101956 285.57422  L 143.194412 285.57422  z " style="fill:#2ca02c;opacity:0.5;"/>
   </g>
   <g id="patch_9">
    <path clip-path="url(#p185c1f9a22)" d="M 157.0095 319.239  L 163.917043 319.239  L 163.917043 313.928975  L 157.0095 313.928975  z " style="fill:#2ca02c;opacity:0.5;"/>
   </g>
   <g id="patch_10">
    <path clip-path="url(#p185c1f9a22)" d="M 170.824587 319.239  L 177.73213 319.239  L 177.73213 316.733498  L 170.824587 316.733498  z " style="fill:#d62728;opacity:0.5;"/>
   </g>
   <g id="patch_11">
    <path clip-path="url(#p185c1f9a22)" d="M 184.639674 319.239  L 191.547217 319.239  L 191.547217 306.696477  L 184.639674 306.696477  z " style="fill:#d62728;opacity:0.5;"/>
   </g>
   <g id="patch_12">
    <path clip-path="url(#p185c1f9a22)" d="M 198.454761 319.239  L 205.362304 319.239  L 205.362304 315.617137  L 198.454761 315.617137  z " style="fill:#d62728;opacity:0.5;"/>
   </g>
   <g id="patch_13">
    <path clip-path="url(#p185c1f9a22)" d="M 212.269848 319.239  L 219.177391 319.239  L 219.177391 258.178526  L 212.269848 258.178526  z " style="fill:#d62728;opacity:0.5;"/>
   </g>
   <g id="patch_14">
    <path clip-path="url(#p185c1f9a22)" d="M 226.084935 319.239  L 232.992478 319.239  L 232.992478 70.736143  L 226.084935 70.736143  z " style="fill:#d62728;opacity:0.5;"/>
   </g>
   <g id="patch_15">
    <path clip-path="url(#p185c1f9a22)" d="M 239.900022 319.239  L 246.807565 319.239  L 246.807565 307.950586  L 239.900022 307.950586  z " style="fill:#d62728;opacity:0.5;"/>
   </g>
   <g id="patch_16">
    <path clip-path="url(#p185c1f9a22)" d="M 253.715109 319.239  L 260.622652 319.239  L 260.622652 232.659367  L 253.715109 232.659367  z " style="fill:#d62728;opacity:0.5;"/>
   </g>
   <g id="patch_17">
    <path clip-path="url(#p185c1f9a22)" d="M 267.530196 319.239  L 274.437739 319.239  L 274.437739 298.832275  L 267.530196 298.832275  z " style="fill:#d62728;opacity:0.5;"/>
   </g>
   <g id="patch_18">
    <path clip-path="url(#p185c1f9a22)" d="M 281.345283 319.239  L 288.252826 319.239  L 288.252826 318.250838  L 281.345283 318.250838  z " style="fill:#9467bd;opacity:0.5;"/>
   </g>
   <g id="patch_19">
    <path clip-path="url(#p185c1f9a22)" d="M 295.16037 319.239  L 302.067913 319.239  L 302.067913 307.372875  L 295.16037 307.372875  z " style="fill:#9467bd;opacity:0.5;"/>
   </g>
   <g id="patch_20">
    <path clip-path="url(#p185c1f9a22)" d="M 308.975457 319.239  L 315.883 319.239  L 315.883 276.004005  L 308.975457 276.004005  z " style="fill:#9467bd;opacity:0.5;"/>
   </g>
   <g id="patch_21">
    <path clip-path="url(#p185c1f9a22)" d="M 322.790544 319.239  L 329.698088 319.239  L 329.698088 280.821224  L 322.790544 280.821224  z " style="fill:#9467bd;opacity:0.5;"/>
   </g>
   <g id="patch_22">
    <path clip-path="url(#p185c1f9a22)" d="M 336.605631 319.239  L 343.513175 319.239  L 343.513175 307.35934  L 336.605631 307.35934  z " style="fill:#9467bd;opacity:0.5;"/>
   </g>
   <g id="patch_23">
    <path clip-path="url(#p185c1f9a22)" d="M 350.420718 319.239  L 357.328262 319.239  L 357.328262 300.661273  L 350.420718 300.661273  z " style="fill:#9467bd;opacity:0.5;"/>
   </g>
   <g id="patch_24">
    <path clip-path="url(#p185c1f9a22)" d="M 364.235805 319.239  L 371.143349 319.239  L 371.143349 313.419905  L 364.235805 313.419905  z " style="fill:#9467bd;opacity:0.5;"/>
   </g>
   <g id="patch_25">
    <path clip-path="url(#p185c1f9a22)" d="M 378.050892 319.239  L 384.958436 319.239  L 384.958436 317.098677  L 378.050892 317.098677  z " style="fill:#9467bd;opacity:0.5;"/>
   </g>
   <g id="patch_26">
    <path clip-path="url(#p185c1f9a22)" d="M 391.865979 319.239  L 398.773523 319.239  L 398.773523 313.342723  L 391.865979 313.342723  z " style="fill:#9467bd;opacity:0.5;"/>
   </g>
   <g id="matplotlib.axis_1">
    <g id="xtick_1">
     <g id="text_1">
      <!-- [3; 3; 0; 0] -->
      <defs>
       <path d="M 8.59375 75.984375  L 29.296875 75.984375  L 29.296875 69  L 17.578125 69  L 17.578125 -6.203125  L 29.296875 -6.203125  L 29.296875 -13.1875  L 8.59375 -13.1875  z " id="DejaVuSans-5b"/>
       <path d="M 40.578125 39.3125  Q 47.65625 37.796875 51.625 33  Q 55.609375 28.21875 55.609375 21.1875  Q 55.609375 10.40625 48.1875 4.484375  Q 40.765625 -1.421875 27.09375 -1.421875  Q 22.515625 -1.421875 17.65625 -0.515625  Q 12.796875 0.390625 7.625 2.203125  L 7.625 11.71875  Q 11.71875 9.328125 16.59375 8.109375  Q 21.484375 6.890625 26.8125 6.890625  Q 36.078125 6.890625 40.9375 10.546875  Q 45.796875 14.203125 45.796875 21.1875  Q 45.796875 27.640625 41.28125 31.265625  Q 36.765625 34.90625 28.71875 34.90625  L 20.21875 34.90625  L 20.21875 43.015625  L 29.109375 43.015625  Q 36.375 43.015625 40.234375 45.921875  Q 44.09375 48.828125 44.09375 54.296875  Q 44.09375 59.90625 40.109375 62.90625  Q 36.140625 65.921875 28.71875 65.921875  Q 24.65625 65.921875 20.015625 65.03125  Q 15.375 64.15625 9.8125 62.3125  L 9.8125 71.09375  Q 15.4375 72.65625 20.34375 73.4375  Q 25.25 74.21875 29.59375 74.21875  Q 40.828125 74.21875 47.359375 69.109375  Q 53.90625 64.015625 53.90625 55.328125  Q 53.90625 49.265625 50.4375 45.09375  Q 46.96875 40.921875 40.578125 39.3125  z " id="DejaVuSans-33"/>
       <path d="M 11.71875 51.703125  L 22.015625 51.703125  L 22.015625 39.3125  L 11.71875 39.3125  z M 11.71875 12.40625  L 22.015625 12.40625  L 22.015625 4  L 14.015625 -11.625  L 7.71875 -11.625  L 11.71875 4  z " id="DejaVuSans-3b"/>
       <path id="DejaVuSans-20"/>
       <path d="M 31.78125 66.40625  Q 24.171875 66.40625 20.328125 58.90625  Q 16.5 51.421875 16.5 36.375  Q 16.5 21.390625 20.328125 13.890625  Q 24.171875 6.390625 31.78125 6.390625  Q 39.453125 6.390625 43.28125 13.890625  Q 47.125 21.390625 47.125 36.375  Q 47.125 51.421875 43.28125 58.90625  Q 39.453125 66.40625 31.78125 66.40625  z M 31.78125 74.21875  Q 44.046875 74.21875 50.515625 64.515625  Q 56.984375 54.828125 56.984375 36.375  Q 56.984375 17.96875 50.515625 8.265625  Q 44.046875 -1.421875 31.78125 -1.421875  Q 19.53125 -1.421875 13.0625 8.265625  Q 6.59375 17.96875 6.59375 36.375  Q 6.59375 54.828125 13.0625 64.515625  Q 19.53125 74.21875 31.78125 74.21875  z " id="DejaVuSans-30"/>
       <path d="M 30.421875 75.984375  L 30.421875 -13.1875  L 9.71875 -13.1875  L 9.71875 -6.203125  L 21.390625 -6.203125  L 21.390625 69  L 9.71875 69  L 9.71875 75.984375  z " id="DejaVuSans-5d"/>
      </defs>
      <g transform="translate(81.021968 392.356187)rotate(-90)scale(0.125 -0.125)">
       <use xlink:href="#DejaVuSans-5b"/>
       <use x="39.013672" xlink:href="#DejaVuSans-33"/>
       <use x="102.636719" xlink:href="#DejaVuSans-3b"/>
       <use x="136.328125" xlink:href="#DejaVuSans-20"/>
       <use x="168.115234" xlink:href="#DejaVuSans-33"/>
       <use x="231.738281" xlink:href="#DejaVuSans-3b"/>
       <use x="265.429688" xlink:href="#DejaVuSans-20"/>
       <use x="297.216797" xlink:href="#DejaVuSans-30"/>
       <use x="360.839844" xlink:href="#DejaVuSans-3b"/>
       <use x="394.53125" xlink:href="#DejaVuSans-20"/>
       <use x="426.318359" xlink:href="#DejaVuSans-30"/>
       <use x="489.941406" xlink:href="#DejaVuSans-5d"/>
      </g>
     </g>
    </g>
    <g id="xtick_2">
     <g id="text_2">
      <!-- [3; 3; 0; 1] -->
      <defs>
       <path d="M 12.40625 8.296875  L 28.515625 8.296875  L 28.515625 63.921875  L 10.984375 60.40625  L 10.984375 69.390625  L 28.421875 72.90625  L 38.28125 72.90625  L 38.28125 8.296875  L 54.390625 8.296875  L 54.390625 0  L 12.40625 0  z " id="DejaVuSans-31"/>
      </defs>
      <g transform="translate(94.837055 392.356187)rotate(-90)scale(0.125 -0.125)">
       <use xlink:href="#DejaVuSans-5b"/>
       <use x="39.013672" xlink:href="#DejaVuSans-33"/>
       <use x="102.636719" xlink:href="#DejaVuSans-3b"/>
       <use x="136.328125" xlink:href="#DejaVuSans-20"/>
       <use x="168.115234" xlink:href="#DejaVuSans-33"/>
       <use x="231.738281" xlink:href="#DejaVuSans-3b"/>
       <use x="265.429688" xlink:href="#DejaVuSans-20"/>
       <use x="297.216797" xlink:href="#DejaVuSans-30"/>
       <use x="360.839844" xlink:href="#DejaVuSans-3b"/>
       <use x="394.53125" xlink:href="#DejaVuSans-20"/>
       <use x="426.318359" xlink:href="#DejaVuSans-31"/>
       <use x="489.941406" xlink:href="#DejaVuSans-5d"/>
      </g>
     </g>
    </g>
    <g id="xtick_3">
     <g id="text_3">
      <!-- [3; 4; 0; 1] -->
      <defs>
       <path d="M 37.796875 64.3125  L 12.890625 25.390625  L 37.796875 25.390625  z M 35.203125 72.90625  L 47.609375 72.90625  L 47.609375 25.390625  L 58.015625 25.390625  L 58.015625 17.1875  L 47.609375 17.1875  L 47.609375 0  L 37.796875 0  L 37.796875 17.1875  L 4.890625 17.1875  L 4.890625 26.703125  z " id="DejaVuSans-34"/>
      </defs>
      <g transform="translate(108.652142 392.356187)rotate(-90)scale(0.125 -0.125)">
       <use xlink:href="#DejaVuSans-5b"/>
       <use x="39.013672" xlink:href="#DejaVuSans-33"/>
       <use x="102.636719" xlink:href="#DejaVuSans-3b"/>
       <use x="136.328125" xlink:href="#DejaVuSans-20"/>
       <use x="168.115234" xlink:href="#DejaVuSans-34"/>
       <use x="231.738281" xlink:href="#DejaVuSans-3b"/>
       <use x="265.429688" xlink:href="#DejaVuSans-20"/>
       <use x="297.216797" xlink:href="#DejaVuSans-30"/>
       <use x="360.839844" xlink:href="#DejaVuSans-3b"/>
       <use x="394.53125" xlink:href="#DejaVuSans-20"/>
       <use x="426.318359" xlink:href="#DejaVuSans-31"/>
       <use x="489.941406" xlink:href="#DejaVuSans-5d"/>
      </g>
     </g>
    </g>
    <g id="xtick_4">
     <g id="text_4">
      <!-- [4; 4; 0; 1] -->
      <g transform="translate(122.467229 392.356187)rotate(-90)scale(0.125 -0.125)">
       <use xlink:href="#DejaVuSans-5b"/>
       <use x="39.013672" xlink:href="#DejaVuSans-34"/>
       <use x="102.636719" xlink:href="#DejaVuSans-3b"/>
       <use x="136.328125" xlink:href="#DejaVuSans-20"/>
       <use x="168.115234" xlink:href="#DejaVuSans-34"/>
       <use x="231.738281" xlink:href="#DejaVuSans-3b"/>
       <use x="265.429688" xlink:href="#DejaVuSans-20"/>
       <use x="297.216797" xlink:href="#DejaVuSans-30"/>
       <use x="360.839844" xlink:href="#DejaVuSans-3b"/>
       <use x="394.53125" xlink:href="#DejaVuSans-20"/>
       <use x="426.318359" xlink:href="#DejaVuSans-31"/>
       <use x="489.941406" xlink:href="#DejaVuSans-5d"/>
      </g>
     </g>
    </g>
    <g id="xtick_5">
     <g id="text_5">
      <!-- [4; 4; 0; 2] -->
      <defs>
       <path d="M 19.1875 8.296875  L 53.609375 8.296875  L 53.609375 0  L 7.328125 0  L 7.328125 8.296875  Q 12.9375 14.109375 22.625 23.890625  Q 32.328125 33.6875 34.8125 36.53125  Q 39.546875 41.84375 41.421875 45.53125  Q 43.3125 49.21875 43.3125 52.78125  Q 43.3125 58.59375 39.234375 62.25  Q 35.15625 65.921875 28.609375 65.921875  Q 23.96875 65.921875 18.8125 64.3125  Q 13.671875 62.703125 7.8125 59.421875  L 7.8125 69.390625  Q 13.765625 71.78125 18.9375 73  Q 24.125 74.21875 28.421875 74.21875  Q 39.75 74.21875 46.484375 68.546875  Q 53.21875 62.890625 53.21875 53.421875  Q 53.21875 48.921875 51.53125 44.890625  Q 49.859375 40.875 45.40625 35.40625  Q 44.1875 33.984375 37.640625 27.21875  Q 31.109375 20.453125 19.1875 8.296875  z " id="DejaVuSans-32"/>
      </defs>
      <g transform="translate(136.282316 392.356187)rotate(-90)scale(0.125 -0.125)">
       <use xlink:href="#DejaVuSans-5b"/>
       <use x="39.013672" xlink:href="#DejaVuSans-34"/>
       <use x="102.636719" xlink:href="#DejaVuSans-3b"/>
       <use x="136.328125" xlink:href="#DejaVuSans-20"/>
       <use x="168.115234" xlink:href="#DejaVuSans-34"/>
       <use x="231.738281" xlink:href="#DejaVuSans-3b"/>
       <use x="265.429688" xlink:href="#DejaVuSans-20"/>
       <use x="297.216797" xlink:href="#DejaVuSans-30"/>
       <use x="360.839844" xlink:href="#DejaVuSans-3b"/>
       <use x="394.53125" xlink:href="#DejaVuSans-20"/>
       <use x="426.318359" xlink:href="#DejaVuSans-32"/>
       <use x="489.941406" xlink:href="#DejaVuSans-5d"/>
      </g>
     </g>
    </g>
    <g id="xtick_6">
     <g id="text_6">
      <!-- [4; 5; 0; 1] -->
      <defs>
       <path d="M 10.796875 72.90625  L 49.515625 72.90625  L 49.515625 64.59375  L 19.828125 64.59375  L 19.828125 46.734375  Q 21.96875 47.46875 24.109375 47.828125  Q 26.265625 48.1875 28.421875 48.1875  Q 40.625 48.1875 47.75 41.5  Q 54.890625 34.8125 54.890625 23.390625  Q 54.890625 11.625 47.5625 5.09375  Q 40.234375 -1.421875 26.90625 -1.421875  Q 22.3125 -1.421875 17.546875 -0.640625  Q 12.796875 0.140625 7.71875 1.703125  L 7.71875 11.625  Q 12.109375 9.234375 16.796875 8.0625  Q 21.484375 6.890625 26.703125 6.890625  Q 35.15625 6.890625 40.078125 11.328125  Q 45.015625 15.765625 45.015625 23.390625  Q 45.015625 31 40.078125 35.4375  Q 35.15625 39.890625 26.703125 39.890625  Q 22.75 39.890625 18.8125 39.015625  Q 14.890625 38.140625 10.796875 36.28125  z " id="DejaVuSans-35"/>
      </defs>
      <g transform="translate(150.097403 392.356187)rotate(-90)scale(0.125 -0.125)">
       <use xlink:href="#DejaVuSans-5b"/>
       <use x="39.013672" xlink:href="#DejaVuSans-34"/>
       <use x="102.636719" xlink:href="#DejaVuSans-3b"/>
       <use x="136.328125" xlink:href="#DejaVuSans-20"/>
       <use x="168.115234" xlink:href="#DejaVuSans-35"/>
       <use x="231.738281" xlink:href="#DejaVuSans-3b"/>
       <use x="265.429688" xlink:href="#DejaVuSans-20"/>
       <use x="297.216797" xlink:href="#DejaVuSans-30"/>
       <use x="360.839844" xlink:href="#DejaVuSans-3b"/>
       <use x="394.53125" xlink:href="#DejaVuSans-20"/>
       <use x="426.318359" xlink:href="#DejaVuSans-31"/>
       <use x="489.941406" xlink:href="#DejaVuSans-5d"/>
      </g>
     </g>
    </g>
    <g id="xtick_7">
     <g id="text_7">
      <!-- [4; 5; 1; 2] -->
      <g transform="translate(163.91249 392.356187)rotate(-90)scale(0.125 -0.125)">
       <use xlink:href="#DejaVuSans-5b"/>
       <use x="39.013672" xlink:href="#DejaVuSans-34"/>
       <use x="102.636719" xlink:href="#DejaVuSans-3b"/>
       <use x="136.328125" xlink:href="#DejaVuSans-20"/>
       <use x="168.115234" xlink:href="#DejaVuSans-35"/>
       <use x="231.738281" xlink:href="#DejaVuSans-3b"/>
       <use x="265.429688" xlink:href="#DejaVuSans-20"/>
       <use x="297.216797" xlink:href="#DejaVuSans-31"/>
       <use x="360.839844" xlink:href="#DejaVuSans-3b"/>
       <use x="394.53125" xlink:href="#DejaVuSans-20"/>
       <use x="426.318359" xlink:href="#DejaVuSans-32"/>
       <use x="489.941406" xlink:href="#DejaVuSans-5d"/>
      </g>
     </g>
    </g>
    <g id="xtick_8">
     <g id="text_8">
      <!-- [5; 3; 1; 2] -->
      <g transform="translate(177.727577 392.356187)rotate(-90)scale(0.125 -0.125)">
       <use xlink:href="#DejaVuSans-5b"/>
       <use x="39.013672" xlink:href="#DejaVuSans-35"/>
       <use x="102.636719" xlink:href="#DejaVuSans-3b"/>
       <use x="136.328125" xlink:href="#DejaVuSans-20"/>
       <use x="168.115234" xlink:href="#DejaVuSans-33"/>
       <use x="231.738281" xlink:href="#DejaVuSans-3b"/>
       <use x="265.429688" xlink:href="#DejaVuSans-20"/>
       <use x="297.216797" xlink:href="#DejaVuSans-31"/>
       <use x="360.839844" xlink:href="#DejaVuSans-3b"/>
       <use x="394.53125" xlink:href="#DejaVuSans-20"/>
       <use x="426.318359" xlink:href="#DejaVuSans-32"/>
       <use x="489.941406" xlink:href="#DejaVuSans-5d"/>
      </g>
     </g>
    </g>
    <g id="xtick_9">
     <g id="text_9">
      <!-- [5; 5; 0; 2] -->
      <g transform="translate(191.542664 392.356187)rotate(-90)scale(0.125 -0.125)">
       <use xlink:href="#DejaVuSans-5b"/>
       <use x="39.013672" xlink:href="#DejaVuSans-35"/>
       <use x="102.636719" xlink:href="#DejaVuSans-3b"/>
       <use x="136.328125" xlink:href="#DejaVuSans-20"/>
       <use x="168.115234" xlink:href="#DejaVuSans-35"/>
       <use x="231.738281" xlink:href="#DejaVuSans-3b"/>
       <use x="265.429688" xlink:href="#DejaVuSans-20"/>
       <use x="297.216797" xlink:href="#DejaVuSans-30"/>
       <use x="360.839844" xlink:href="#DejaVuSans-3b"/>
       <use x="394.53125" xlink:href="#DejaVuSans-20"/>
       <use x="426.318359" xlink:href="#DejaVuSans-32"/>
       <use x="489.941406" xlink:href="#DejaVuSans-5d"/>
      </g>
     </g>
    </g>
    <g id="xtick_10">
     <g id="text_10">
      <!-- [5; 6; 0; 1] -->
      <defs>
       <path d="M 33.015625 40.375  Q 26.375 40.375 22.484375 35.828125  Q 18.609375 31.296875 18.609375 23.390625  Q 18.609375 15.53125 22.484375 10.953125  Q 26.375 6.390625 33.015625 6.390625  Q 39.65625 6.390625 43.53125 10.953125  Q 47.40625 15.53125 47.40625 23.390625  Q 47.40625 31.296875 43.53125 35.828125  Q 39.65625 40.375 33.015625 40.375  z M 52.59375 71.296875  L 52.59375 62.3125  Q 48.875 64.0625 45.09375 64.984375  Q 41.3125 65.921875 37.59375 65.921875  Q 27.828125 65.921875 22.671875 59.328125  Q 17.53125 52.734375 16.796875 39.40625  Q 19.671875 43.65625 24.015625 45.921875  Q 28.375 48.1875 33.59375 48.1875  Q 44.578125 48.1875 50.953125 41.515625  Q 57.328125 34.859375 57.328125 23.390625  Q 57.328125 12.15625 50.6875 5.359375  Q 44.046875 -1.421875 33.015625 -1.421875  Q 20.359375 -1.421875 13.671875 8.265625  Q 6.984375 17.96875 6.984375 36.375  Q 6.984375 53.65625 15.1875 63.9375  Q 23.390625 74.21875 37.203125 74.21875  Q 40.921875 74.21875 44.703125 73.484375  Q 48.484375 72.75 52.59375 71.296875  z " id="DejaVuSans-36"/>
      </defs>
      <g transform="translate(205.357751 392.356187)rotate(-90)scale(0.125 -0.125)">
       <use xlink:href="#DejaVuSans-5b"/>
       <use x="39.013672" xlink:href="#DejaVuSans-35"/>
       <use x="102.636719" xlink:href="#DejaVuSans-3b"/>
       <use x="136.328125" xlink:href="#DejaVuSans-20"/>
       <use x="168.115234" xlink:href="#DejaVuSans-36"/>
       <use x="231.738281" xlink:href="#DejaVuSans-3b"/>
       <use x="265.429688" xlink:href="#DejaVuSans-20"/>
       <use x="297.216797" xlink:href="#DejaVuSans-30"/>
       <use x="360.839844" xlink:href="#DejaVuSans-3b"/>
       <use x="394.53125" xlink:href="#DejaVuSans-20"/>
       <use x="426.318359" xlink:href="#DejaVuSans-31"/>
       <use x="489.941406" xlink:href="#DejaVuSans-5d"/>
      </g>
     </g>
    </g>
    <g id="xtick_11">
     <g id="text_11">
      <!-- [5; 6; 0; 2] -->
      <g transform="translate(219.172838 392.356187)rotate(-90)scale(0.125 -0.125)">
       <use xlink:href="#DejaVuSans-5b"/>
       <use x="39.013672" xlink:href="#DejaVuSans-35"/>
       <use x="102.636719" xlink:href="#DejaVuSans-3b"/>
       <use x="136.328125" xlink:href="#DejaVuSans-20"/>
       <use x="168.115234" xlink:href="#DejaVuSans-36"/>
       <use x="231.738281" xlink:href="#DejaVuSans-3b"/>
       <use x="265.429688" xlink:href="#DejaVuSans-20"/>
       <use x="297.216797" xlink:href="#DejaVuSans-30"/>
       <use x="360.839844" xlink:href="#DejaVuSans-3b"/>
       <use x="394.53125" xlink:href="#DejaVuSans-20"/>
       <use x="426.318359" xlink:href="#DejaVuSans-32"/>
       <use x="489.941406" xlink:href="#DejaVuSans-5d"/>
      </g>
     </g>
    </g>
    <g id="xtick_12">
     <g id="text_12">
      <!-- [5; 6; 0; 3] -->
      <g transform="translate(232.987925 392.356187)rotate(-90)scale(0.125 -0.125)">
       <use xlink:href="#DejaVuSans-5b"/>
       <use x="39.013672" xlink:href="#DejaVuSans-35"/>
       <use x="102.636719" xlink:href="#DejaVuSans-3b"/>
       <use x="136.328125" xlink:href="#DejaVuSans-20"/>
       <use x="168.115234" xlink:href="#DejaVuSans-36"/>
       <use x="231.738281" xlink:href="#DejaVuSans-3b"/>
       <use x="265.429688" xlink:href="#DejaVuSans-20"/>
       <use x="297.216797" xlink:href="#DejaVuSans-30"/>
       <use x="360.839844" xlink:href="#DejaVuSans-3b"/>
       <use x="394.53125" xlink:href="#DejaVuSans-20"/>
       <use x="426.318359" xlink:href="#DejaVuSans-33"/>
       <use x="489.941406" xlink:href="#DejaVuSans-5d"/>
      </g>
     </g>
    </g>
    <g id="xtick_13">
     <g id="text_13">
      <!-- [5; 6; 1; 2] -->
      <g transform="translate(246.803012 392.356187)rotate(-90)scale(0.125 -0.125)">
       <use xlink:href="#DejaVuSans-5b"/>
       <use x="39.013672" xlink:href="#DejaVuSans-35"/>
       <use x="102.636719" xlink:href="#DejaVuSans-3b"/>
       <use x="136.328125" xlink:href="#DejaVuSans-20"/>
       <use x="168.115234" xlink:href="#DejaVuSans-36"/>
       <use x="231.738281" xlink:href="#DejaVuSans-3b"/>
       <use x="265.429688" xlink:href="#DejaVuSans-20"/>
       <use x="297.216797" xlink:href="#DejaVuSans-31"/>
       <use x="360.839844" xlink:href="#DejaVuSans-3b"/>
       <use x="394.53125" xlink:href="#DejaVuSans-20"/>
       <use x="426.318359" xlink:href="#DejaVuSans-32"/>
       <use x="489.941406" xlink:href="#DejaVuSans-5d"/>
      </g>
     </g>
    </g>
    <g id="xtick_14">
     <g id="text_14">
      <!-- [5; 6; 1; 3] -->
      <g transform="translate(260.618099 392.356187)rotate(-90)scale(0.125 -0.125)">
       <use xlink:href="#DejaVuSans-5b"/>
       <use x="39.013672" xlink:href="#DejaVuSans-35"/>
       <use x="102.636719" xlink:href="#DejaVuSans-3b"/>
       <use x="136.328125" xlink:href="#DejaVuSans-20"/>
       <use x="168.115234" xlink:href="#DejaVuSans-36"/>
       <use x="231.738281" xlink:href="#DejaVuSans-3b"/>
       <use x="265.429688" xlink:href="#DejaVuSans-20"/>
       <use x="297.216797" xlink:href="#DejaVuSans-31"/>
       <use x="360.839844" xlink:href="#DejaVuSans-3b"/>
       <use x="394.53125" xlink:href="#DejaVuSans-20"/>
       <use x="426.318359" xlink:href="#DejaVuSans-33"/>
       <use x="489.941406" xlink:href="#DejaVuSans-5d"/>
      </g>
     </g>
    </g>
    <g id="xtick_15">
     <g id="text_15">
      <!-- [5; 7; 0; 3] -->
      <defs>
       <path d="M 8.203125 72.90625  L 55.078125 72.90625  L 55.078125 68.703125  L 28.609375 0  L 18.3125 0  L 43.21875 64.59375  L 8.203125 64.59375  z " id="DejaVuSans-37"/>
      </defs>
      <g transform="translate(274.433186 392.356187)rotate(-90)scale(0.125 -0.125)">
       <use xlink:href="#DejaVuSans-5b"/>
       <use x="39.013672" xlink:href="#DejaVuSans-35"/>
       <use x="102.636719" xlink:href="#DejaVuSans-3b"/>
       <use x="136.328125" xlink:href="#DejaVuSans-20"/>
       <use x="168.115234" xlink:href="#DejaVuSans-37"/>
       <use x="231.738281" xlink:href="#DejaVuSans-3b"/>
       <use x="265.429688" xlink:href="#DejaVuSans-20"/>
       <use x="297.216797" xlink:href="#DejaVuSans-30"/>
       <use x="360.839844" xlink:href="#DejaVuSans-3b"/>
       <use x="394.53125" xlink:href="#DejaVuSans-20"/>
       <use x="426.318359" xlink:href="#DejaVuSans-33"/>
       <use x="489.941406" xlink:href="#DejaVuSans-5d"/>
      </g>
     </g>
    </g>
    <g id="xtick_16">
     <g id="text_16">
      <!-- [6; 4; 1; 3] -->
      <g transform="translate(288.248273 392.356187)rotate(-90)scale(0.125 -0.125)">
       <use xlink:href="#DejaVuSans-5b"/>
       <use x="39.013672" xlink:href="#DejaVuSans-36"/>
       <use x="102.636719" xlink:href="#DejaVuSans-3b"/>
       <use x="136.328125" xlink:href="#DejaVuSans-20"/>
       <use x="168.115234" xlink:href="#DejaVuSans-34"/>
       <use x="231.738281" xlink:href="#DejaVuSans-3b"/>
       <use x="265.429688" xlink:href="#DejaVuSans-20"/>
       <use x="297.216797" xlink:href="#DejaVuSans-31"/>
       <use x="360.839844" xlink:href="#DejaVuSans-3b"/>
       <use x="394.53125" xlink:href="#DejaVuSans-20"/>
       <use x="426.318359" xlink:href="#DejaVuSans-33"/>
       <use x="489.941406" xlink:href="#DejaVuSans-5d"/>
      </g>
     </g>
    </g>
    <g id="xtick_17">
     <g id="text_17">
      <!-- [6; 7; 0; 2] -->
      <g transform="translate(302.06336 392.356187)rotate(-90)scale(0.125 -0.125)">
       <use xlink:href="#DejaVuSans-5b"/>
       <use x="39.013672" xlink:href="#DejaVuSans-36"/>
       <use x="102.636719" xlink:href="#DejaVuSans-3b"/>
       <use x="136.328125" xlink:href="#DejaVuSans-20"/>
       <use x="168.115234" xlink:href="#DejaVuSans-37"/>
       <use x="231.738281" xlink:href="#DejaVuSans-3b"/>
       <use x="265.429688" xlink:href="#DejaVuSans-20"/>
       <use x="297.216797" xlink:href="#DejaVuSans-30"/>
       <use x="360.839844" xlink:href="#DejaVuSans-3b"/>
       <use x="394.53125" xlink:href="#DejaVuSans-20"/>
       <use x="426.318359" xlink:href="#DejaVuSans-32"/>
       <use x="489.941406" xlink:href="#DejaVuSans-5d"/>
      </g>
     </g>
    </g>
    <g id="xtick_18">
     <g id="text_18">
      <!-- [6; 7; 0; 3] -->
      <g transform="translate(315.878447 392.356187)rotate(-90)scale(0.125 -0.125)">
       <use xlink:href="#DejaVuSans-5b"/>
       <use x="39.013672" xlink:href="#DejaVuSans-36"/>
       <use x="102.636719" xlink:href="#DejaVuSans-3b"/>
       <use x="136.328125" xlink:href="#DejaVuSans-20"/>
       <use x="168.115234" xlink:href="#DejaVuSans-37"/>
       <use x="231.738281" xlink:href="#DejaVuSans-3b"/>
       <use x="265.429688" xlink:href="#DejaVuSans-20"/>
       <use x="297.216797" xlink:href="#DejaVuSans-30"/>
       <use x="360.839844" xlink:href="#DejaVuSans-3b"/>
       <use x="394.53125" xlink:href="#DejaVuSans-20"/>
       <use x="426.318359" xlink:href="#DejaVuSans-33"/>
       <use x="489.941406" xlink:href="#DejaVuSans-5d"/>
      </g>
     </g>
    </g>
    <g id="xtick_19">
     <g id="text_19">
      <!-- [6; 7; 0; 4] -->
      <g transform="translate(329.693535 392.356187)rotate(-90)scale(0.125 -0.125)">
       <use xlink:href="#DejaVuSans-5b"/>
       <use x="39.013672" xlink:href="#DejaVuSans-36"/>
       <use x="102.636719" xlink:href="#DejaVuSans-3b"/>
       <use x="136.328125" xlink:href="#DejaVuSans-20"/>
       <use x="168.115234" xlink:href="#DejaVuSans-37"/>
       <use x="231.738281" xlink:href="#DejaVuSans-3b"/>
       <use x="265.429688" xlink:href="#DejaVuSans-20"/>
       <use x="297.216797" xlink:href="#DejaVuSans-30"/>
       <use x="360.839844" xlink:href="#DejaVuSans-3b"/>
       <use x="394.53125" xlink:href="#DejaVuSans-20"/>
       <use x="426.318359" xlink:href="#DejaVuSans-34"/>
       <use x="489.941406" xlink:href="#DejaVuSans-5d"/>
      </g>
     </g>
    </g>
    <g id="xtick_20">
     <g id="text_20">
      <!-- [6; 7; 1; 3] -->
      <g transform="translate(343.508622 392.356187)rotate(-90)scale(0.125 -0.125)">
       <use xlink:href="#DejaVuSans-5b"/>
       <use x="39.013672" xlink:href="#DejaVuSans-36"/>
       <use x="102.636719" xlink:href="#DejaVuSans-3b"/>
       <use x="136.328125" xlink:href="#DejaVuSans-20"/>
       <use x="168.115234" xlink:href="#DejaVuSans-37"/>
       <use x="231.738281" xlink:href="#DejaVuSans-3b"/>
       <use x="265.429688" xlink:href="#DejaVuSans-20"/>
       <use x="297.216797" xlink:href="#DejaVuSans-31"/>
       <use x="360.839844" xlink:href="#DejaVuSans-3b"/>
       <use x="394.53125" xlink:href="#DejaVuSans-20"/>
       <use x="426.318359" xlink:href="#DejaVuSans-33"/>
       <use x="489.941406" xlink:href="#DejaVuSans-5d"/>
      </g>
     </g>
    </g>
    <g id="xtick_21">
     <g id="text_21">
      <!-- [6; 7; 1; 4] -->
      <g transform="translate(357.323709 392.356187)rotate(-90)scale(0.125 -0.125)">
       <use xlink:href="#DejaVuSans-5b"/>
       <use x="39.013672" xlink:href="#DejaVuSans-36"/>
       <use x="102.636719" xlink:href="#DejaVuSans-3b"/>
       <use x="136.328125" xlink:href="#DejaVuSans-20"/>
       <use x="168.115234" xlink:href="#DejaVuSans-37"/>
       <use x="231.738281" xlink:href="#DejaVuSans-3b"/>
       <use x="265.429688" xlink:href="#DejaVuSans-20"/>
       <use x="297.216797" xlink:href="#DejaVuSans-31"/>
       <use x="360.839844" xlink:href="#DejaVuSans-3b"/>
       <use x="394.53125" xlink:href="#DejaVuSans-20"/>
       <use x="426.318359" xlink:href="#DejaVuSans-34"/>
       <use x="489.941406" xlink:href="#DejaVuSans-5d"/>
      </g>
     </g>
    </g>
    <g id="xtick_22">
     <g id="text_22">
      <!-- [6; 7; 2; 4] -->
      <g transform="translate(371.138796 392.356187)rotate(-90)scale(0.125 -0.125)">
       <use xlink:href="#DejaVuSans-5b"/>
       <use x="39.013672" xlink:href="#DejaVuSans-36"/>
       <use x="102.636719" xlink:href="#DejaVuSans-3b"/>
       <use x="136.328125" xlink:href="#DejaVuSans-20"/>
       <use x="168.115234" xlink:href="#DejaVuSans-37"/>
       <use x="231.738281" xlink:href="#DejaVuSans-3b"/>
       <use x="265.429688" xlink:href="#DejaVuSans-20"/>
       <use x="297.216797" xlink:href="#DejaVuSans-32"/>
       <use x="360.839844" xlink:href="#DejaVuSans-3b"/>
       <use x="394.53125" xlink:href="#DejaVuSans-20"/>
       <use x="426.318359" xlink:href="#DejaVuSans-34"/>
       <use x="489.941406" xlink:href="#DejaVuSans-5d"/>
      </g>
     </g>
    </g>
    <g id="xtick_23">
     <g id="text_23">
      <!-- [6; 8; 0; 3] -->
      <defs>
       <path d="M 31.78125 34.625  Q 24.75 34.625 20.71875 30.859375  Q 16.703125 27.09375 16.703125 20.515625  Q 16.703125 13.921875 20.71875 10.15625  Q 24.75 6.390625 31.78125 6.390625  Q 38.8125 6.390625 42.859375 10.171875  Q 46.921875 13.96875 46.921875 20.515625  Q 46.921875 27.09375 42.890625 30.859375  Q 38.875 34.625 31.78125 34.625  z M 21.921875 38.8125  Q 15.578125 40.375 12.03125 44.71875  Q 8.5 49.078125 8.5 55.328125  Q 8.5 64.0625 14.71875 69.140625  Q 20.953125 74.21875 31.78125 74.21875  Q 42.671875 74.21875 48.875 69.140625  Q 55.078125 64.0625 55.078125 55.328125  Q 55.078125 49.078125 51.53125 44.71875  Q 48 40.375 41.703125 38.8125  Q 48.828125 37.15625 52.796875 32.3125  Q 56.78125 27.484375 56.78125 20.515625  Q 56.78125 9.90625 50.3125 4.234375  Q 43.84375 -1.421875 31.78125 -1.421875  Q 19.734375 -1.421875 13.25 4.234375  Q 6.78125 9.90625 6.78125 20.515625  Q 6.78125 27.484375 10.78125 32.3125  Q 14.796875 37.15625 21.921875 38.8125  z M 18.3125 54.390625  Q 18.3125 48.734375 21.84375 45.5625  Q 25.390625 42.390625 31.78125 42.390625  Q 38.140625 42.390625 41.71875 45.5625  Q 45.3125 48.734375 45.3125 54.390625  Q 45.3125 60.0625 41.71875 63.234375  Q 38.140625 66.40625 31.78125 66.40625  Q 25.390625 66.40625 21.84375 63.234375  Q 18.3125 60.0625 18.3125 54.390625  z " id="DejaVuSans-38"/>
      </defs>
      <g transform="translate(384.953883 392.356187)rotate(-90)scale(0.125 -0.125)">
       <use xlink:href="#DejaVuSans-5b"/>
       <use x="39.013672" xlink:href="#DejaVuSans-36"/>
       <use x="102.636719" xlink:href="#DejaVuSans-3b"/>
       <use x="136.328125" xlink:href="#DejaVuSans-20"/>
       <use x="168.115234" xlink:href="#DejaVuSans-38"/>
       <use x="231.738281" xlink:href="#DejaVuSans-3b"/>
       <use x="265.429688" xlink:href="#DejaVuSans-20"/>
       <use x="297.216797" xlink:href="#DejaVuSans-30"/>
       <use x="360.839844" xlink:href="#DejaVuSans-3b"/>
       <use x="394.53125" xlink:href="#DejaVuSans-20"/>
       <use x="426.318359" xlink:href="#DejaVuSans-33"/>
       <use x="489.941406" xlink:href="#DejaVuSans-5d"/>
      </g>
     </g>
    </g>
    <g id="xtick_24">
     <g id="text_24">
      <!-- [6; 8; 0; 4] -->
      <g transform="translate(398.76897 392.356187)rotate(-90)scale(0.125 -0.125)">
       <use xlink:href="#DejaVuSans-5b"/>
       <use x="39.013672" xlink:href="#DejaVuSans-36"/>
       <use x="102.636719" xlink:href="#DejaVuSans-3b"/>
       <use x="136.328125" xlink:href="#DejaVuSans-20"/>
       <use x="168.115234" xlink:href="#DejaVuSans-38"/>
       <use x="231.738281" xlink:href="#DejaVuSans-3b"/>
       <use x="265.429688" xlink:href="#DejaVuSans-20"/>
       <use x="297.216797" xlink:href="#DejaVuSans-30"/>
       <use x="360.839844" xlink:href="#DejaVuSans-3b"/>
       <use x="394.53125" xlink:href="#DejaVuSans-20"/>
       <use x="426.318359" xlink:href="#DejaVuSans-34"/>
       <use x="489.941406" xlink:href="#DejaVuSans-5d"/>
      </g>
     </g>
    </g>
    <g id="text_25">
     <!-- Key: [HexNAc^Me; Hex^Me; Fuc^Me; Neu5NAc^Me] -->
     <defs>
      <path d="M 9.8125 72.90625  L 19.671875 72.90625  L 19.671875 42.09375  L 52.390625 72.90625  L 65.09375 72.90625  L 28.90625 38.921875  L 67.671875 0  L 54.6875 0  L 19.671875 35.109375  L 19.671875 0  L 9.8125 0  z " id="DejaVuSans-4b"/>
      <path d="M 56.203125 29.59375  L 56.203125 25.203125  L 14.890625 25.203125  Q 15.484375 15.921875 20.484375 11.0625  Q 25.484375 6.203125 34.421875 6.203125  Q 39.59375 6.203125 44.453125 7.46875  Q 49.3125 8.734375 54.109375 11.28125  L 54.109375 2.78125  Q 49.265625 0.734375 44.1875 -0.34375  Q 39.109375 -1.421875 33.890625 -1.421875  Q 20.796875 -1.421875 13.15625 6.1875  Q 5.515625 13.8125 5.515625 26.8125  Q 5.515625 40.234375 12.765625 48.109375  Q 20.015625 56 32.328125 56  Q 43.359375 56 49.78125 48.890625  Q 56.203125 41.796875 56.203125 29.59375  z M 47.21875 32.234375  Q 47.125 39.59375 43.09375 43.984375  Q 39.0625 48.390625 32.421875 48.390625  Q 24.90625 48.390625 20.390625 44.140625  Q 15.875 39.890625 15.1875 32.171875  z " id="DejaVuSans-65"/>
      <path d="M 32.171875 -5.078125  Q 28.375 -14.84375 24.75 -17.8125  Q 21.140625 -20.796875 15.09375 -20.796875  L 7.90625 -20.796875  L 7.90625 -13.28125  L 13.1875 -13.28125  Q 16.890625 -13.28125 18.9375 -11.515625  Q 21 -9.765625 23.484375 -3.21875  L 25.09375 0.875  L 2.984375 54.6875  L 12.5 54.6875  L 29.59375 11.921875  L 46.6875 54.6875  L 56.203125 54.6875  z " id="DejaVuSans-79"/>
      <path d="M 11.71875 12.40625  L 22.015625 12.40625  L 22.015625 0  L 11.71875 0  z M 11.71875 51.703125  L 22.015625 51.703125  L 22.015625 39.3125  L 11.71875 39.3125  z " id="DejaVuSans-3a"/>
      <path d="M 9.8125 72.90625  L 19.671875 72.90625  L 19.671875 43.015625  L 55.515625 43.015625  L 55.515625 72.90625  L 65.375 72.90625  L 65.375 0  L 55.515625 0  L 55.515625 34.71875  L 19.671875 34.71875  L 19.671875 0  L 9.8125 0  z " id="DejaVuSans-48"/>
      <path d="M 54.890625 54.6875  L 35.109375 28.078125  L 55.90625 0  L 45.3125 0  L 29.390625 21.484375  L 13.484375 0  L 2.875 0  L 24.125 28.609375  L 4.6875 54.6875  L 15.28125 54.6875  L 29.78125 35.203125  L 44.28125 54.6875  z " id="DejaVuSans-78"/>
      <path d="M 9.8125 72.90625  L 23.09375 72.90625  L 55.421875 11.921875  L 55.421875 72.90625  L 64.984375 72.90625  L 64.984375 0  L 51.703125 0  L 19.390625 60.984375  L 19.390625 0  L 9.8125 0  z " id="DejaVuSans-4e"/>
      <path d="M 34.1875 63.1875  L 20.796875 26.90625  L 47.609375 26.90625  z M 28.609375 72.90625  L 39.796875 72.90625  L 67.578125 0  L 57.328125 0  L 50.6875 18.703125  L 17.828125 18.703125  L 11.1875 0  L 0.78125 0  z " id="DejaVuSans-41"/>
      <path d="M 48.78125 52.59375  L 48.78125 44.1875  Q 44.96875 46.296875 41.140625 47.34375  Q 37.3125 48.390625 33.40625 48.390625  Q 24.65625 48.390625 19.8125 42.84375  Q 14.984375 37.3125 14.984375 27.296875  Q 14.984375 17.28125 19.8125 11.734375  Q 24.65625 6.203125 33.40625 6.203125  Q 37.3125 6.203125 41.140625 7.25  Q 44.96875 8.296875 48.78125 10.40625  L 48.78125 2.09375  Q 45.015625 0.34375 40.984375 -0.53125  Q 36.96875 -1.421875 32.421875 -1.421875  Q 20.0625 -1.421875 12.78125 6.34375  Q 5.515625 14.109375 5.515625 27.296875  Q 5.515625 40.671875 12.859375 48.328125  Q 20.21875 56 33.015625 56  Q 37.15625 56 41.109375 55.140625  Q 45.0625 54.296875 48.78125 52.59375  z " id="DejaVuSans-63"/>
      <path d="M 46.6875 72.90625  L 73.1875 45.703125  L 63.375 45.703125  L 41.890625 64.984375  L 20.40625 45.703125  L 10.59375 45.703125  L 37.109375 72.90625  z " id="DejaVuSans-5e"/>
      <path d="M 9.8125 72.90625  L 24.515625 72.90625  L 43.109375 23.296875  L 61.8125 72.90625  L 76.515625 72.90625  L 76.515625 0  L 66.890625 0  L 66.890625 64.015625  L 48.09375 14.015625  L 38.1875 14.015625  L 19.390625 64.015625  L 19.390625 0  L 9.8125 0  z " id="DejaVuSans-4d"/>
      <path d="M 9.8125 72.90625  L 51.703125 72.90625  L 51.703125 64.59375  L 19.671875 64.59375  L 19.671875 43.109375  L 48.578125 43.109375  L 48.578125 34.8125  L 19.671875 34.8125  L 19.671875 0  L 9.8125 0  z " id="DejaVuSans-46"/>
      <path d="M 8.5 21.578125  L 8.5 54.6875  L 17.484375 54.6875  L 17.484375 21.921875  Q 17.484375 14.15625 20.5 10.265625  Q 23.53125 6.390625 29.59375 6.390625  Q 36.859375 6.390625 41.078125 11.03125  Q 45.3125 15.671875 45.3125 23.6875  L 45.3125 54.6875  L 54.296875 54.6875  L 54.296875 0  L 45.3125 0  L 45.3125 8.40625  Q 42.046875 3.421875 37.71875 1  Q 33.40625 -1.421875 27.6875 -1.421875  Q 18.265625 -1.421875 13.375 4.4375  Q 8.5 10.296875 8.5 21.578125  z M 31.109375 56  z " id="DejaVuSans-75"/>
     </defs>
     <g transform="translate(48.861562 406.994)scale(0.14 -0.14)">
      <use xlink:href="#DejaVuSans-4b"/>
      <use x="65.498047" xlink:href="#DejaVuSans-65"/>
      <use x="127.021484" xlink:href="#DejaVuSans-79"/>
      <use x="186.091797" xlink:href="#DejaVuSans-3a"/>
      <use x="219.783203" xlink:href="#DejaVuSans-20"/>
      <use x="251.570312" xlink:href="#DejaVuSans-5b"/>
      <use x="290.583984" xlink:href="#DejaVuSans-48"/>
      <use x="365.779297" xlink:href="#DejaVuSans-65"/>
      <use x="427.287109" xlink:href="#DejaVuSans-78"/>
      <use x="486.466797" xlink:href="#DejaVuSans-4e"/>
      <use x="561.271484" xlink:href="#DejaVuSans-41"/>
      <use x="629.664062" xlink:href="#DejaVuSans-63"/>
      <use x="684.644531" xlink:href="#DejaVuSans-5e"/>
      <use x="768.433594" xlink:href="#DejaVuSans-4d"/>
      <use x="854.712891" xlink:href="#DejaVuSans-65"/>
      <use x="916.236328" xlink:href="#DejaVuSans-3b"/>
      <use x="949.927734" xlink:href="#DejaVuSans-20"/>
      <use x="981.714844" xlink:href="#DejaVuSans-48"/>
      <use x="1056.910156" xlink:href="#DejaVuSans-65"/>
      <use x="1118.417969" xlink:href="#DejaVuSans-78"/>
      <use x="1177.597656" xlink:href="#DejaVuSans-5e"/>
      <use x="1261.386719" xlink:href="#DejaVuSans-4d"/>
      <use x="1347.666016" xlink:href="#DejaVuSans-65"/>
      <use x="1409.189453" xlink:href="#DejaVuSans-3b"/>
      <use x="1442.880859" xlink:href="#DejaVuSans-20"/>
      <use x="1474.667969" xlink:href="#DejaVuSans-46"/>
      <use x="1532.109375" xlink:href="#DejaVuSans-75"/>
      <use x="1595.488281" xlink:href="#DejaVuSans-63"/>
      <use x="1650.46875" xlink:href="#DejaVuSans-5e"/>
      <use x="1734.257812" xlink:href="#DejaVuSans-4d"/>
      <use x="1820.537109" xlink:href="#DejaVuSans-65"/>
      <use x="1882.060547" xlink:href="#DejaVuSans-3b"/>
      <use x="1915.751953" xlink:href="#DejaVuSans-20"/>
      <use x="1947.539062" xlink:href="#DejaVuSans-4e"/>
      <use x="2022.34375" xlink:href="#DejaVuSans-65"/>
      <use x="2083.867188" xlink:href="#DejaVuSans-75"/>
      <use x="2147.246094" xlink:href="#DejaVuSans-35"/>
      <use x="2210.869141" xlink:href="#DejaVuSans-4e"/>
      <use x="2285.673828" xlink:href="#DejaVuSans-41"/>
      <use x="2354.066406" xlink:href="#DejaVuSans-63"/>
      <use x="2409.046875" xlink:href="#DejaVuSans-5e"/>
      <use x="2492.835938" xlink:href="#DejaVuSans-4d"/>
      <use x="2579.115234" xlink:href="#DejaVuSans-65"/>
      <use x="2640.638672" xlink:href="#DejaVuSans-5d"/>
     </g>
    </g>
   </g>
   <g id="matplotlib.axis_2">
    <g id="ytick_1">
     <g id="line2d_1">
      <defs>
       <path d="M 0 0  L -3.5 0  " id="m7c04c29d95" style="stroke:#000000;stroke-width:0.8;"/>
      </defs>
      <g>
       <use style="stroke:#000000;stroke-width:0.8;" x="57.88625" xlink:href="#m7c04c29d95" y="319.239"/>
      </g>
     </g>
     <g id="text_26">
      <!-- 0.00 -->
      <defs>
       <path d="M 10.6875 12.40625  L 21 12.40625  L 21 0  L 10.6875 0  z " id="DejaVuSans-2e"/>
      </defs>
      <g transform="translate(28.620625 323.038219)scale(0.1 -0.1)">
       <use xlink:href="#DejaVuSans-30"/>
       <use x="63.623047" xlink:href="#DejaVuSans-2e"/>
       <use x="95.410156" xlink:href="#DejaVuSans-30"/>
       <use x="159.033203" xlink:href="#DejaVuSans-30"/>
      </g>
     </g>
    </g>
    <g id="ytick_2">
     <g id="line2d_2">
      <g>
       <use style="stroke:#000000;stroke-width:0.8;" x="57.88625" xlink:href="#m7c04c29d95" y="286.978419"/>
      </g>
     </g>
     <g id="text_27">
      <!-- 0.25 -->
      <g transform="translate(28.620625 290.777638)scale(0.1 -0.1)">
       <use xlink:href="#DejaVuSans-30"/>
       <use x="63.623047" xlink:href="#DejaVuSans-2e"/>
       <use x="95.410156" xlink:href="#DejaVuSans-32"/>
       <use x="159.033203" xlink:href="#DejaVuSans-35"/>
      </g>
     </g>
    </g>
    <g id="ytick_3">
     <g id="line2d_3">
      <g>
       <use style="stroke:#000000;stroke-width:0.8;" x="57.88625" xlink:href="#m7c04c29d95" y="254.717838"/>
      </g>
     </g>
     <g id="text_28">
      <!-- 0.50 -->
      <g transform="translate(28.620625 258.517057)scale(0.1 -0.1)">
       <use xlink:href="#DejaVuSans-30"/>
       <use x="63.623047" xlink:href="#DejaVuSans-2e"/>
       <use x="95.410156" xlink:href="#DejaVuSans-35"/>
       <use x="159.033203" xlink:href="#DejaVuSans-30"/>
      </g>
     </g>
    </g>
    <g id="ytick_4">
     <g id="line2d_4">
      <g>
       <use style="stroke:#000000;stroke-width:0.8;" x="57.88625" xlink:href="#m7c04c29d95" y="222.457257"/>
      </g>
     </g>
     <g id="text_29">
      <!-- 0.75 -->
      <g transform="translate(28.620625 226.256476)scale(0.1 -0.1)">
       <use xlink:href="#DejaVuSans-30"/>
       <use x="63.623047" xlink:href="#DejaVuSans-2e"/>
       <use x="95.410156" xlink:href="#DejaVuSans-37"/>
       <use x="159.033203" xlink:href="#DejaVuSans-35"/>
      </g>
     </g>
    </g>
    <g id="ytick_5">
     <g id="line2d_5">
      <g>
       <use style="stroke:#000000;stroke-width:0.8;" x="57.88625" xlink:href="#m7c04c29d95" y="190.196677"/>
      </g>
     </g>
     <g id="text_30">
      <!-- 1.00 -->
      <g transform="translate(28.620625 193.995895)scale(0.1 -0.1)">
       <use xlink:href="#DejaVuSans-31"/>
       <use x="63.623047" xlink:href="#DejaVuSans-2e"/>
       <use x="95.410156" xlink:href="#DejaVuSans-30"/>
       <use x="159.033203" xlink:href="#DejaVuSans-30"/>
      </g>
     </g>
    </g>
    <g id="ytick_6">
     <g id="line2d_6">
      <g>
       <use style="stroke:#000000;stroke-width:0.8;" x="57.88625" xlink:href="#m7c04c29d95" y="157.936096"/>
      </g>
     </g>
     <g id="text_31">
      <!-- 1.25 -->
      <g transform="translate(28.620625 161.735314)scale(0.1 -0.1)">
       <use xlink:href="#DejaVuSans-31"/>
       <use x="63.623047" xlink:href="#DejaVuSans-2e"/>
       <use x="95.410156" xlink:href="#DejaVuSans-32"/>
       <use x="159.033203" xlink:href="#DejaVuSans-35"/>
      </g>
     </g>
    </g>
    <g id="ytick_7">
     <g id="line2d_7">
      <g>
       <use style="stroke:#000000;stroke-width:0.8;" x="57.88625" xlink:href="#m7c04c29d95" y="125.675515"/>
      </g>
     </g>
     <g id="text_32">
      <!-- 1.50 -->
      <g transform="translate(28.620625 129.474734)scale(0.1 -0.1)">
       <use xlink:href="#DejaVuSans-31"/>
       <use x="63.623047" xlink:href="#DejaVuSans-2e"/>
       <use x="95.410156" xlink:href="#DejaVuSans-35"/>
       <use x="159.033203" xlink:href="#DejaVuSans-30"/>
      </g>
     </g>
    </g>
    <g id="ytick_8">
     <g id="line2d_8">
      <g>
       <use style="stroke:#000000;stroke-width:0.8;" x="57.88625" xlink:href="#m7c04c29d95" y="93.414934"/>
      </g>
     </g>
     <g id="text_33">
      <!-- 1.75 -->
      <g transform="translate(28.620625 97.214153)scale(0.1 -0.1)">
       <use xlink:href="#DejaVuSans-31"/>
       <use x="63.623047" xlink:href="#DejaVuSans-2e"/>
       <use x="95.410156" xlink:href="#DejaVuSans-37"/>
       <use x="159.033203" xlink:href="#DejaVuSans-35"/>
      </g>
     </g>
    </g>
    <g id="ytick_9">
     <g id="line2d_9">
      <g>
       <use style="stroke:#000000;stroke-width:0.8;" x="57.88625" xlink:href="#m7c04c29d95" y="61.154353"/>
      </g>
     </g>
     <g id="text_34">
      <!-- 2.00 -->
      <g transform="translate(28.620625 64.953572)scale(0.1 -0.1)">
       <use xlink:href="#DejaVuSans-32"/>
       <use x="63.623047" xlink:href="#DejaVuSans-2e"/>
       <use x="95.410156" xlink:href="#DejaVuSans-30"/>
       <use x="159.033203" xlink:href="#DejaVuSans-30"/>
      </g>
     </g>
    </g>
    <g id="text_35">
     <!-- Relative Intensity -->
     <defs>
      <path d="M 44.390625 34.1875  Q 47.5625 33.109375 50.5625 29.59375  Q 53.5625 26.078125 56.59375 19.921875  L 66.609375 0  L 56 0  L 46.6875 18.703125  Q 43.0625 26.03125 39.671875 28.421875  Q 36.28125 30.8125 30.421875 30.8125  L 19.671875 30.8125  L 19.671875 0  L 9.8125 0  L 9.8125 72.90625  L 32.078125 72.90625  Q 44.578125 72.90625 50.734375 67.671875  Q 56.890625 62.453125 56.890625 51.90625  Q 56.890625 45.015625 53.6875 40.46875  Q 50.484375 35.9375 44.390625 34.1875  z M 19.671875 64.796875  L 19.671875 38.921875  L 32.078125 38.921875  Q 39.203125 38.921875 42.84375 42.21875  Q 46.484375 45.515625 46.484375 51.90625  Q 46.484375 58.296875 42.84375 61.546875  Q 39.203125 64.796875 32.078125 64.796875  z " id="DejaVuSans-52"/>
      <path d="M 9.421875 75.984375  L 18.40625 75.984375  L 18.40625 0  L 9.421875 0  z " id="DejaVuSans-6c"/>
      <path d="M 34.28125 27.484375  Q 23.390625 27.484375 19.1875 25  Q 14.984375 22.515625 14.984375 16.5  Q 14.984375 11.71875 18.140625 8.90625  Q 21.296875 6.109375 26.703125 6.109375  Q 34.1875 6.109375 38.703125 11.40625  Q 43.21875 16.703125 43.21875 25.484375  L 43.21875 27.484375  z M 52.203125 31.203125  L 52.203125 0  L 43.21875 0  L 43.21875 8.296875  Q 40.140625 3.328125 35.546875 0.953125  Q 30.953125 -1.421875 24.3125 -1.421875  Q 15.921875 -1.421875 10.953125 3.296875  Q 6 8.015625 6 15.921875  Q 6 25.140625 12.171875 29.828125  Q 18.359375 34.515625 30.609375 34.515625  L 43.21875 34.515625  L 43.21875 35.40625  Q 43.21875 41.609375 39.140625 45  Q 35.0625 48.390625 27.6875 48.390625  Q 23 48.390625 18.546875 47.265625  Q 14.109375 46.140625 10.015625 43.890625  L 10.015625 52.203125  Q 14.9375 54.109375 19.578125 55.046875  Q 24.21875 56 28.609375 56  Q 40.484375 56 46.34375 49.84375  Q 52.203125 43.703125 52.203125 31.203125  z " id="DejaVuSans-61"/>
      <path d="M 18.3125 70.21875  L 18.3125 54.6875  L 36.8125 54.6875  L 36.8125 47.703125  L 18.3125 47.703125  L 18.3125 18.015625  Q 18.3125 11.328125 20.140625 9.421875  Q 21.96875 7.515625 27.59375 7.515625  L 36.8125 7.515625  L 36.8125 0  L 27.59375 0  Q 17.1875 0 13.234375 3.875  Q 9.28125 7.765625 9.28125 18.015625  L 9.28125 47.703125  L 2.6875 47.703125  L 2.6875 54.6875  L 9.28125 54.6875  L 9.28125 70.21875  z " id="DejaVuSans-74"/>
      <path d="M 9.421875 54.6875  L 18.40625 54.6875  L 18.40625 0  L 9.421875 0  z M 9.421875 75.984375  L 18.40625 75.984375  L 18.40625 64.59375  L 9.421875 64.59375  z " id="DejaVuSans-69"/>
      <path d="M 2.984375 54.6875  L 12.5 54.6875  L 29.59375 8.796875  L 46.6875 54.6875  L 56.203125 54.6875  L 35.6875 0  L 23.484375 0  z " id="DejaVuSans-76"/>
      <path d="M 9.8125 72.90625  L 19.671875 72.90625  L 19.671875 0  L 9.8125 0  z " id="DejaVuSans-49"/>
      <path d="M 54.890625 33.015625  L 54.890625 0  L 45.90625 0  L 45.90625 32.71875  Q 45.90625 40.484375 42.875 44.328125  Q 39.84375 48.1875 33.796875 48.1875  Q 26.515625 48.1875 22.3125 43.546875  Q 18.109375 38.921875 18.109375 30.90625  L 18.109375 0  L 9.078125 0  L 9.078125 54.6875  L 18.109375 54.6875  L 18.109375 46.1875  Q 21.34375 51.125 25.703125 53.5625  Q 30.078125 56 35.796875 56  Q 45.21875 56 50.046875 50.171875  Q 54.890625 44.34375 54.890625 33.015625  z " id="DejaVuSans-6e"/>
      <path d="M 44.28125 53.078125  L 44.28125 44.578125  Q 40.484375 46.53125 36.375 47.5  Q 32.28125 48.484375 27.875 48.484375  Q 21.1875 48.484375 17.84375 46.4375  Q 14.5 44.390625 14.5 40.28125  Q 14.5 37.15625 16.890625 35.375  Q 19.28125 33.59375 26.515625 31.984375  L 29.59375 31.296875  Q 39.15625 29.25 43.1875 25.515625  Q 47.21875 21.78125 47.21875 15.09375  Q 47.21875 7.46875 41.1875 3.015625  Q 35.15625 -1.421875 24.609375 -1.421875  Q 20.21875 -1.421875 15.453125 -0.5625  Q 10.6875 0.296875 5.421875 2  L 5.421875 11.28125  Q 10.40625 8.6875 15.234375 7.390625  Q 20.0625 6.109375 24.8125 6.109375  Q 31.15625 6.109375 34.5625 8.28125  Q 37.984375 10.453125 37.984375 14.40625  Q 37.984375 18.0625 35.515625 20.015625  Q 33.0625 21.96875 24.703125 23.78125  L 21.578125 24.515625  Q 13.234375 26.265625 9.515625 29.90625  Q 5.8125 33.546875 5.8125 39.890625  Q 5.8125 47.609375 11.28125 51.796875  Q 16.75 56 26.8125 56  Q 31.78125 56 36.171875 55.265625  Q 40.578125 54.546875 44.28125 53.078125  z " id="DejaVuSans-73"/>
     </defs>
     <g transform="translate(20.877188 267.5025)rotate(-90)scale(0.18 -0.18)">
      <use xlink:href="#DejaVuSans-52"/>
      <use x="69.419922" xlink:href="#DejaVuSans-65"/>
      <use x="130.943359" xlink:href="#DejaVuSans-6c"/>
      <use x="158.726562" xlink:href="#DejaVuSans-61"/>
      <use x="220.005859" xlink:href="#DejaVuSans-74"/>
      <use x="259.214844" xlink:href="#DejaVuSans-69"/>
      <use x="286.998047" xlink:href="#DejaVuSans-76"/>
      <use x="346.177734" xlink:href="#DejaVuSans-65"/>
      <use x="407.701172" xlink:href="#DejaVuSans-20"/>
      <use x="439.488281" xlink:href="#DejaVuSans-49"/>
      <use x="468.980469" xlink:href="#DejaVuSans-6e"/>
      <use x="532.359375" xlink:href="#DejaVuSans-74"/>
      <use x="571.568359" xlink:href="#DejaVuSans-65"/>
      <use x="633.091797" xlink:href="#DejaVuSans-6e"/>
      <use x="696.470703" xlink:href="#DejaVuSans-73"/>
      <use x="748.570312" xlink:href="#DejaVuSans-69"/>
      <use x="776.353516" xlink:href="#DejaVuSans-74"/>
      <use x="815.5625" xlink:href="#DejaVuSans-79"/>
     </g>
    </g>
    <g id="text_36">
     <!-- 1e10 -->
     <g transform="translate(57.88625 55.311)scale(0.1 -0.1)">
      <use xlink:href="#DejaVuSans-31"/>
      <use x="63.623047" xlink:href="#DejaVuSans-65"/>
      <use x="125.146484" xlink:href="#DejaVuSans-31"/>
      <use x="188.769531" xlink:href="#DejaVuSans-30"/>
     </g>
    </g>
   </g>
   <g id="patch_27">
    <path d="M 57.88625 319.239  L 57.88625 58.311  " style="fill:none;stroke:#000000;stroke-linecap:square;stroke-linejoin:miter;stroke-width:0.8;"/>
   </g>
   <g id="patch_28">
    <path d="M 57.88625 319.239  L 415.00625 319.239  " style="fill:none;stroke:#000000;stroke-linecap:square;stroke-linejoin:miter;stroke-width:0.8;"/>
   </g>
   <g id="text_37">
    <!-- Glycan Composition -->
    <defs>
     <path d="M 59.515625 10.40625  L 59.515625 29.984375  L 43.40625 29.984375  L 43.40625 38.09375  L 69.28125 38.09375  L 69.28125 6.78125  Q 63.578125 2.734375 56.6875 0.65625  Q 49.8125 -1.421875 42 -1.421875  Q 24.90625 -1.421875 15.25 8.5625  Q 5.609375 18.5625 5.609375 36.375  Q 5.609375 54.25 15.25 64.234375  Q 24.90625 74.21875 42 74.21875  Q 49.125 74.21875 55.546875 72.453125  Q 61.96875 70.703125 67.390625 67.28125  L 67.390625 56.78125  Q 61.921875 61.421875 55.765625 63.765625  Q 49.609375 66.109375 42.828125 66.109375  Q 29.4375 66.109375 22.71875 58.640625  Q 16.015625 51.171875 16.015625 36.375  Q 16.015625 21.625 22.71875 14.15625  Q 29.4375 6.6875 42.828125 6.6875  Q 48.046875 6.6875 52.140625 7.59375  Q 56.25 8.5 59.515625 10.40625  z " id="DejaVuSans-47"/>
     <path d="M 64.40625 67.28125  L 64.40625 56.890625  Q 59.421875 61.53125 53.78125 63.8125  Q 48.140625 66.109375 41.796875 66.109375  Q 29.296875 66.109375 22.65625 58.46875  Q 16.015625 50.828125 16.015625 36.375  Q 16.015625 21.96875 22.65625 14.328125  Q 29.296875 6.6875 41.796875 6.6875  Q 48.140625 6.6875 53.78125 8.984375  Q 59.421875 11.28125 64.40625 15.921875  L 64.40625 5.609375  Q 59.234375 2.09375 53.4375 0.328125  Q 47.65625 -1.421875 41.21875 -1.421875  Q 24.65625 -1.421875 15.125 8.703125  Q 5.609375 18.84375 5.609375 36.375  Q 5.609375 53.953125 15.125 64.078125  Q 24.65625 74.21875 41.21875 74.21875  Q 47.75 74.21875 53.53125 72.484375  Q 59.328125 70.75 64.40625 67.28125  z " id="DejaVuSans-43"/>
     <path d="M 30.609375 48.390625  Q 23.390625 48.390625 19.1875 42.75  Q 14.984375 37.109375 14.984375 27.296875  Q 14.984375 17.484375 19.15625 11.84375  Q 23.34375 6.203125 30.609375 6.203125  Q 37.796875 6.203125 41.984375 11.859375  Q 46.1875 17.53125 46.1875 27.296875  Q 46.1875 37.015625 41.984375 42.703125  Q 37.796875 48.390625 30.609375 48.390625  z M 30.609375 56  Q 42.328125 56 49.015625 48.375  Q 55.71875 40.765625 55.71875 27.296875  Q 55.71875 13.875 49.015625 6.21875  Q 42.328125 -1.421875 30.609375 -1.421875  Q 18.84375 -1.421875 12.171875 6.21875  Q 5.515625 13.875 5.515625 27.296875  Q 5.515625 40.765625 12.171875 48.375  Q 18.84375 56 30.609375 56  z " id="DejaVuSans-6f"/>
     <path d="M 52 44.1875  Q 55.375 50.25 60.0625 53.125  Q 64.75 56 71.09375 56  Q 79.640625 56 84.28125 50.015625  Q 88.921875 44.046875 88.921875 33.015625  L 88.921875 0  L 79.890625 0  L 79.890625 32.71875  Q 79.890625 40.578125 77.09375 44.375  Q 74.3125 48.1875 68.609375 48.1875  Q 61.625 48.1875 57.5625 43.546875  Q 53.515625 38.921875 53.515625 30.90625  L 53.515625 0  L 44.484375 0  L 44.484375 32.71875  Q 44.484375 40.625 41.703125 44.40625  Q 38.921875 48.1875 33.109375 48.1875  Q 26.21875 48.1875 22.15625 43.53125  Q 18.109375 38.875 18.109375 30.90625  L 18.109375 0  L 9.078125 0  L 9.078125 54.6875  L 18.109375 54.6875  L 18.109375 46.1875  Q 21.1875 51.21875 25.484375 53.609375  Q 29.78125 56 35.6875 56  Q 41.65625 56 45.828125 52.96875  Q 50 49.953125 52 44.1875  z " id="DejaVuSans-6d"/>
     <path d="M 18.109375 8.203125  L 18.109375 -20.796875  L 9.078125 -20.796875  L 9.078125 54.6875  L 18.109375 54.6875  L 18.109375 46.390625  Q 20.953125 51.265625 25.265625 53.625  Q 29.59375 56 35.59375 56  Q 45.5625 56 51.78125 48.09375  Q 58.015625 40.1875 58.015625 27.296875  Q 58.015625 14.40625 51.78125 6.484375  Q 45.5625 -1.421875 35.59375 -1.421875  Q 29.59375 -1.421875 25.265625 0.953125  Q 20.953125 3.328125 18.109375 8.203125  z M 48.6875 27.296875  Q 48.6875 37.203125 44.609375 42.84375  Q 40.53125 48.484375 33.40625 48.484375  Q 26.265625 48.484375 22.1875 42.84375  Q 18.109375 37.203125 18.109375 27.296875  Q 18.109375 17.390625 22.1875 11.75  Q 26.265625 6.109375 33.40625 6.109375  Q 40.53125 6.109375 44.609375 11.75  Q 48.6875 17.390625 48.6875 27.296875  z " id="DejaVuSans-70"/>
    </defs>
    <g transform="translate(116.399375 25.43625)scale(0.24 -0.24)">
     <use xlink:href="#DejaVuSans-47"/>
     <use x="77.490234" xlink:href="#DejaVuSans-6c"/>
     <use x="105.273438" xlink:href="#DejaVuSans-79"/>
     <use x="164.453125" xlink:href="#DejaVuSans-63"/>
     <use x="219.433594" xlink:href="#DejaVuSans-61"/>
     <use x="280.712891" xlink:href="#DejaVuSans-6e"/>
     <use x="344.091797" xlink:href="#DejaVuSans-20"/>
     <use x="375.878906" xlink:href="#DejaVuSans-43"/>
     <use x="445.703125" xlink:href="#DejaVuSans-6f"/>
     <use x="506.884766" xlink:href="#DejaVuSans-6d"/>
     <use x="604.296875" xlink:href="#DejaVuSans-70"/>
     <use x="667.773438" xlink:href="#DejaVuSans-6f"/>
     <use x="728.955078" xlink:href="#DejaVuSans-73"/>
     <use x="781.054688" xlink:href="#DejaVuSans-69"/>
     <use x="808.837891" xlink:href="#DejaVuSans-74"/>
     <use x="848.046875" xlink:href="#DejaVuSans-69"/>
     <use x="875.830078" xlink:href="#DejaVuSans-6f"/>
     <use x="937.011719" xlink:href="#DejaVuSans-6e"/>
    </g>
    <!-- Total Abundances -->
    <defs>
     <path d="M -0.296875 72.90625  L 61.375 72.90625  L 61.375 64.59375  L 35.5 64.59375  L 35.5 0  L 25.59375 0  L 25.59375 64.59375  L -0.296875 64.59375  z " id="DejaVuSans-54"/>
     <path d="M 48.6875 27.296875  Q 48.6875 37.203125 44.609375 42.84375  Q 40.53125 48.484375 33.40625 48.484375  Q 26.265625 48.484375 22.1875 42.84375  Q 18.109375 37.203125 18.109375 27.296875  Q 18.109375 17.390625 22.1875 11.75  Q 26.265625 6.109375 33.40625 6.109375  Q 40.53125 6.109375 44.609375 11.75  Q 48.6875 17.390625 48.6875 27.296875  z M 18.109375 46.390625  Q 20.953125 51.265625 25.265625 53.625  Q 29.59375 56 35.59375 56  Q 45.5625 56 51.78125 48.09375  Q 58.015625 40.1875 58.015625 27.296875  Q 58.015625 14.40625 51.78125 6.484375  Q 45.5625 -1.421875 35.59375 -1.421875  Q 29.59375 -1.421875 25.265625 0.953125  Q 20.953125 3.328125 18.109375 8.203125  L 18.109375 0  L 9.078125 0  L 9.078125 75.984375  L 18.109375 75.984375  z " id="DejaVuSans-62"/>
     <path d="M 45.40625 46.390625  L 45.40625 75.984375  L 54.390625 75.984375  L 54.390625 0  L 45.40625 0  L 45.40625 8.203125  Q 42.578125 3.328125 38.25 0.953125  Q 33.9375 -1.421875 27.875 -1.421875  Q 17.96875 -1.421875 11.734375 6.484375  Q 5.515625 14.40625 5.515625 27.296875  Q 5.515625 40.1875 11.734375 48.09375  Q 17.96875 56 27.875 56  Q 33.9375 56 38.25 53.625  Q 42.578125 51.265625 45.40625 46.390625  z M 14.796875 27.296875  Q 14.796875 17.390625 18.875 11.75  Q 22.953125 6.109375 30.078125 6.109375  Q 37.203125 6.109375 41.296875 11.75  Q 45.40625 17.390625 45.40625 27.296875  Q 45.40625 37.203125 41.296875 42.84375  Q 37.203125 48.484375 30.078125 48.484375  Q 22.953125 48.484375 18.875 42.84375  Q 14.796875 37.203125 14.796875 27.296875  z " id="DejaVuSans-64"/>
    </defs>
    <g transform="translate(128.75375 52.311)scale(0.24 -0.24)">
     <use xlink:href="#DejaVuSans-54"/>
     <use x="60.818359" xlink:href="#DejaVuSans-6f"/>
     <use x="122" xlink:href="#DejaVuSans-74"/>
     <use x="161.208984" xlink:href="#DejaVuSans-61"/>
     <use x="222.488281" xlink:href="#DejaVuSans-6c"/>
     <use x="250.271484" xlink:href="#DejaVuSans-20"/>
     <use x="282.058594" xlink:href="#DejaVuSans-41"/>
     <use x="350.466797" xlink:href="#DejaVuSans-62"/>
     <use x="413.943359" xlink:href="#DejaVuSans-75"/>
     <use x="477.322266" xlink:href="#DejaVuSans-6e"/>
     <use x="540.701172" xlink:href="#DejaVuSans-64"/>
     <use x="604.177734" xlink:href="#DejaVuSans-61"/>
     <use x="665.457031" xlink:href="#DejaVuSans-6e"/>
     <use x="728.835938" xlink:href="#DejaVuSans-63"/>
     <use x="783.816406" xlink:href="#DejaVuSans-65"/>
     <use x="845.339844" xlink:href="#DejaVuSans-73"/>
    </g>
   </g>
   <g id="legend_1">
    <g id="patch_29">
     <path d="M 355.083375 125.0235  L 479.43025 125.0235  Q 481.43025 125.0235 481.43025 123.0235  L 481.43025 65.311  Q 481.43025 63.311 479.43025 63.311  L 355.083375 63.311  Q 353.083375 63.311 353.083375 65.311  L 353.083375 123.0235  Q 353.083375 125.0235 355.083375 125.0235  z " style="fill:#ffffff;opacity:0.8;stroke:#cccccc;stroke-linejoin:miter;"/>
    </g>
    <g id="patch_30">
     <path d="M 357.083375 74.909437  L 377.083375 74.909437  L 377.083375 67.909437  L 357.083375 67.909437  z " style="fill:#ff7f0e;opacity:0.5;stroke:#ff7f0e;stroke-linejoin:miter;"/>
    </g>
    <g id="text_38">
     <!-- Hybrid -->
     <defs>
      <path d="M 41.109375 46.296875  Q 39.59375 47.171875 37.8125 47.578125  Q 36.03125 48 33.890625 48  Q 26.265625 48 22.1875 43.046875  Q 18.109375 38.09375 18.109375 28.8125  L 18.109375 0  L 9.078125 0  L 9.078125 54.6875  L 18.109375 54.6875  L 18.109375 46.1875  Q 20.953125 51.171875 25.484375 53.578125  Q 30.03125 56 36.53125 56  Q 37.453125 56 38.578125 55.875  Q 39.703125 55.765625 41.0625 55.515625  z " id="DejaVuSans-72"/>
     </defs>
     <g transform="translate(385.083375 74.909437)scale(0.1 -0.1)">
      <use xlink:href="#DejaVuSans-48"/>
      <use x="75.195312" xlink:href="#DejaVuSans-79"/>
      <use x="134.375" xlink:href="#DejaVuSans-62"/>
      <use x="197.851562" xlink:href="#DejaVuSans-72"/>
      <use x="238.964844" xlink:href="#DejaVuSans-69"/>
      <use x="266.748047" xlink:href="#DejaVuSans-64"/>
     </g>
    </g>
    <g id="patch_31">
     <path d="M 357.083375 89.587562  L 377.083375 89.587562  L 377.083375 82.587562  L 357.083375 82.587562  z " style="fill:#2ca02c;opacity:0.5;stroke:#2ca02c;stroke-linejoin:miter;"/>
    </g>
    <g id="text_39">
     <!-- Bi-Antennerary -->
     <defs>
      <path d="M 19.671875 34.8125  L 19.671875 8.109375  L 35.5 8.109375  Q 43.453125 8.109375 47.28125 11.40625  Q 51.125 14.703125 51.125 21.484375  Q 51.125 28.328125 47.28125 31.5625  Q 43.453125 34.8125 35.5 34.8125  z M 19.671875 64.796875  L 19.671875 42.828125  L 34.28125 42.828125  Q 41.5 42.828125 45.03125 45.53125  Q 48.578125 48.25 48.578125 53.8125  Q 48.578125 59.328125 45.03125 62.0625  Q 41.5 64.796875 34.28125 64.796875  z M 9.8125 72.90625  L 35.015625 72.90625  Q 46.296875 72.90625 52.390625 68.21875  Q 58.5 63.53125 58.5 54.890625  Q 58.5 48.1875 55.375 44.234375  Q 52.25 40.28125 46.1875 39.3125  Q 53.46875 37.75 57.5 32.78125  Q 61.53125 27.828125 61.53125 20.40625  Q 61.53125 10.640625 54.890625 5.3125  Q 48.25 0 35.984375 0  L 9.8125 0  z " id="DejaVuSans-42"/>
      <path d="M 4.890625 31.390625  L 31.203125 31.390625  L 31.203125 23.390625  L 4.890625 23.390625  z " id="DejaVuSans-2d"/>
     </defs>
     <g transform="translate(385.083375 89.587562)scale(0.1 -0.1)">
      <use xlink:href="#DejaVuSans-42"/>
      <use x="68.603516" xlink:href="#DejaVuSans-69"/>
      <use x="96.386719" xlink:href="#DejaVuSans-2d"/>
      <use x="132.439453" xlink:href="#DejaVuSans-41"/>
      <use x="200.847656" xlink:href="#DejaVuSans-6e"/>
      <use x="264.226562" xlink:href="#DejaVuSans-74"/>
      <use x="303.435547" xlink:href="#DejaVuSans-65"/>
      <use x="364.958984" xlink:href="#DejaVuSans-6e"/>
      <use x="428.337891" xlink:href="#DejaVuSans-6e"/>
      <use x="491.716797" xlink:href="#DejaVuSans-65"/>
      <use x="553.240234" xlink:href="#DejaVuSans-72"/>
      <use x="594.353516" xlink:href="#DejaVuSans-61"/>
      <use x="655.632812" xlink:href="#DejaVuSans-72"/>
      <use x="696.746094" xlink:href="#DejaVuSans-79"/>
     </g>
    </g>
    <g id="patch_32">
     <path d="M 357.083375 104.265687  L 377.083375 104.265687  L 377.083375 97.265687  L 357.083375 97.265687  z " style="fill:#d62728;opacity:0.5;stroke:#d62728;stroke-linejoin:miter;"/>
    </g>
    <g id="text_40">
     <!-- Tri-Antennerary -->
     <g transform="translate(385.083375 104.265687)scale(0.1 -0.1)">
      <use xlink:href="#DejaVuSans-54"/>
      <use x="60.865234" xlink:href="#DejaVuSans-72"/>
      <use x="101.978516" xlink:href="#DejaVuSans-69"/>
      <use x="129.761719" xlink:href="#DejaVuSans-2d"/>
      <use x="165.814453" xlink:href="#DejaVuSans-41"/>
      <use x="234.222656" xlink:href="#DejaVuSans-6e"/>
      <use x="297.601562" xlink:href="#DejaVuSans-74"/>
      <use x="336.810547" xlink:href="#DejaVuSans-65"/>
      <use x="398.333984" xlink:href="#DejaVuSans-6e"/>
      <use x="461.712891" xlink:href="#DejaVuSans-6e"/>
      <use x="525.091797" xlink:href="#DejaVuSans-65"/>
      <use x="586.615234" xlink:href="#DejaVuSans-72"/>
      <use x="627.728516" xlink:href="#DejaVuSans-61"/>
      <use x="689.007812" xlink:href="#DejaVuSans-72"/>
      <use x="730.121094" xlink:href="#DejaVuSans-79"/>
     </g>
    </g>
    <g id="patch_33">
     <path d="M 357.083375 118.943812  L 377.083375 118.943812  L 377.083375 111.943812  L 357.083375 111.943812  z " style="fill:#9467bd;opacity:0.5;stroke:#9467bd;stroke-linejoin:miter;"/>
    </g>
    <g id="text_41">
     <!-- Tetra-Antennerary -->
     <g transform="translate(385.083375 118.943812)scale(0.1 -0.1)">
      <use xlink:href="#DejaVuSans-54"/>
      <use x="60.818359" xlink:href="#DejaVuSans-65"/>
      <use x="122.341797" xlink:href="#DejaVuSans-74"/>
      <use x="161.550781" xlink:href="#DejaVuSans-72"/>
      <use x="202.664062" xlink:href="#DejaVuSans-61"/>
      <use x="263.943359" xlink:href="#DejaVuSans-2d"/>
      <use x="299.996094" xlink:href="#DejaVuSans-41"/>
      <use x="368.404297" xlink:href="#DejaVuSans-6e"/>
      <use x="431.783203" xlink:href="#DejaVuSans-74"/>
      <use x="470.992188" xlink:href="#DejaVuSans-65"/>
      <use x="532.515625" xlink:href="#DejaVuSans-6e"/>
      <use x="595.894531" xlink:href="#DejaVuSans-6e"/>
      <use x="659.273438" xlink:href="#DejaVuSans-65"/>
      <use x="720.796875" xlink:href="#DejaVuSans-72"/>
      <use x="761.910156" xlink:href="#DejaVuSans-61"/>
      <use x="823.189453" xlink:href="#DejaVuSans-72"/>
      <use x="864.302734" xlink:href="#DejaVuSans-79"/>
     </g>
    </g>
   </g>
  </g>
 </g>
 <defs>
  <clipPath id="p185c1f9a22">
   <rect height="260.928" width="357.12" x="57.88625" y="58.311"/>
  </clipPath>
 </defs>
</svg>